<svg width="17" height="17" viewBox="0 0 17 17" fill="none" xmlns="http://www.w3.org/2000/svg">
<path fill-rule="evenodd" clip-rule="evenodd" d="M1.82937 0.292761C1.43884 -0.0977629 0.805678 -0.0977632 0.415154 0.292761L0.293005 0.41491C-0.0975189 0.805434 -0.0975181 1.4386 0.293006 1.82912L6.49953 8.03564L0.293006 14.2422C-0.097518 14.6327 -0.0975189 15.2659 0.293005 15.6564L0.415154 15.7785C0.805678 16.1691 1.43884 16.1691 1.82937 15.7785L8.03589 9.57201L14.2424 15.7785C14.6329 16.1691 15.2661 16.1691 15.6566 15.7785L15.7788 15.6564C16.1693 15.2659 16.1693 14.6327 15.7788 14.2422L9.57225 8.03564L15.7788 1.82912C16.1693 1.4386 16.1693 0.805434 15.7788 0.41491L15.6566 0.292761C15.2661 -0.0977632 14.6329 -0.0977629 14.2424 0.292761L8.03589 6.49928L1.82937 0.292761Z" fill="white"/>
</svg>
